<svg width="24" height="24" viewBox="0 0 24 24" fill="none" xmlns="http://www.w3.org/2000/svg">
<path d="M3.93066 4.89178C6.155 2.67712 9.58407 2.61942 11.8652 4.69745L12 4.8205L12.1348 4.69745C14.3443 2.68479 17.6315 2.68439 19.8574 4.69159L20.0693 4.89178C22.3409 7.17396 22.3398 10.7473 20.0684 13.0187L12.5723 20.5148C12.4082 20.6707 12.207 20.7501 12 20.7502C11.7885 20.7502 11.5909 20.6779 11.4316 20.5187L3.93164 13.0187C1.66017 10.7473 1.65898 7.17395 3.93066 4.89178ZM18.9404 6.01776C17.2927 4.38088 14.7066 4.38051 13.0684 6.01874L12.5684 6.51874C12.2565 6.83048 11.7533 6.83045 11.4414 6.51874L10.9414 6.01874C10.1234 5.20078 9.07217 4.79022 8.00977 4.79022C6.94718 4.79024 5.89674 5.20083 5.06934 6.01776L4.72266 6.35956H4.76953C4.52363 6.66234 4.32047 6.99844 4.16895 7.35956C3.95766 7.8631 3.84961 8.40431 3.84961 8.95038C3.84966 9.49628 3.95774 10.0368 4.16895 10.5402C4.37984 11.0428 4.68948 11.4979 5.07812 11.8801V11.881L12.0098 18.8127L18.9414 11.881C20.5795 10.2427 20.5786 7.6664 18.9414 6.01874L18.9404 6.01776Z" fill="#202020" stroke="white" stroke-width="0.4"/>
</svg>
