<svg width="24" height="24" viewBox="0 0 24 24" fill="none" xmlns="http://www.w3.org/2000/svg">
<path d="M18.5 2.2002C20.3195 2.2002 21.7998 3.68046 21.7998 5.5C21.7998 7.31954 20.3195 8.7998 18.5 8.7998C17.4841 8.7998 16.5887 8.32995 15.9834 7.61133L15.876 7.48438L15.7314 7.56543L8.8623 11.4355L8.74121 11.5039L8.7627 11.6406C8.78309 11.7732 8.7998 11.888 8.7998 12C8.7998 12.0507 8.79371 12.1044 8.78516 12.168C8.7771 12.2278 8.76632 12.3025 8.76074 12.375L8.75098 12.502L8.8623 12.5645L15.7314 16.4346L15.875 16.5146L15.9824 16.3896C16.5985 15.6695 17.4947 15.2002 18.5 15.2002C20.3195 15.2002 21.7998 16.6805 21.7998 18.5C21.7998 20.3195 20.3195 21.7998 18.5 21.7998C16.6805 21.7998 15.2002 20.3195 15.2002 18.5C15.2002 18.4493 15.2063 18.3956 15.2148 18.332C15.2229 18.2722 15.2337 18.1975 15.2393 18.125L15.249 17.998L15.1377 17.9355L8.26855 14.0654L8.125 13.9854L8.01758 14.1104C7.40151 14.8305 6.50535 15.2998 5.5 15.2998C3.68046 15.2998 2.2002 13.8195 2.2002 12C2.2002 10.1808 3.67993 8.70072 5.49902 8.7002C5.97983 8.70157 6.45482 8.80851 6.88965 9.01367C7.32449 9.21888 7.70887 9.51742 8.01562 9.8877L8.12305 10.0166L8.26855 9.93457L15.1377 6.06445L15.2588 5.99609L15.2373 5.85938C15.2169 5.72679 15.2002 5.61204 15.2002 5.5C15.2002 3.68046 16.6805 2.2002 18.5 2.2002ZM18.5 16.7998C17.5595 16.7998 16.7998 17.5595 16.7998 18.5C16.7998 19.4405 17.5595 20.2002 18.5 20.2002C19.4405 20.2002 20.2002 19.4405 20.2002 18.5C20.2002 17.5595 19.4405 16.7998 18.5 16.7998ZM5.5 10.2998C4.55954 10.2998 3.7998 11.0595 3.7998 12C3.7998 12.9405 4.55954 13.7002 5.5 13.7002C6.44046 13.7002 7.2002 12.9405 7.2002 12C7.2002 11.0595 6.44046 10.2998 5.5 10.2998ZM18.5 3.7998C17.5595 3.7998 16.7998 4.55954 16.7998 5.5C16.7998 6.44046 17.5595 7.2002 18.5 7.2002C19.4405 7.2002 20.2002 6.44046 20.2002 5.5C20.2002 4.55954 19.4405 3.7998 18.5 3.7998Z" fill="black" stroke="white" stroke-width="0.4"/>
</svg>
