<svg width="18" height="18" viewBox="0 0 18 18" fill="none" xmlns="http://www.w3.org/2000/svg">
<path d="M5.15148 10.7475L3.77898 15.5475C3.68898 15.8475 3.80148 16.1775 4.05648 16.3575C4.31148 16.545 4.65648 16.5525 4.91148 16.3725L8.99898 13.65L13.0865 16.3725C13.2132 16.4585 13.3633 16.5032 13.5164 16.5005C13.6694 16.4978 13.8179 16.4479 13.9415 16.3575C14.1965 16.17 14.309 15.8475 14.219 15.5475L12.8465 10.7475L16.2515 7.68753C16.4765 7.48503 16.559 7.17003 16.4615 6.89253C16.364 6.60753 16.109 6.41253 15.809 6.38253L11.534 6.04503L9.68148 1.95003C9.62229 1.81857 9.52639 1.70701 9.40532 1.62875C9.28425 1.55048 9.14315 1.50885 8.99898 1.50885C8.85481 1.50885 8.71372 1.55048 8.59264 1.62875C8.47157 1.70701 8.37567 1.81857 8.31648 1.95003L6.46398 6.04503L2.18898 6.38253C1.88898 6.40503 1.63398 6.60753 1.53648 6.89253C1.43898 7.17753 1.52148 7.49253 1.74648 7.68753L5.15148 10.7475Z" fill="#E7CE53"/>
</svg>
