<svg preserveAspectRatio="none" width="100%" height="100%" overflow="visible" style="display: block;" viewBox="0 0 774 196" fill="none" xmlns="http://www.w3.org/2000/svg">
<g id="1000+">
<path d="M41.5626 33.3562H0.00121879L0 3.62007H73.5117L73.5194 192.639H41.5691L41.5626 33.3562Z" fill="#8355F8"/>
<path d="M100.644 98.5172C100.642 39.8206 132.331 0 180.905 0C229.48 0 261.432 39.8206 261.435 98.5172C261.437 156.955 231.307 196 180.913 196C130.52 196 100.646 156.955 100.644 98.5172ZM133.374 98.5172C133.375 142.216 151.04 166.781 180.912 166.781C211.044 166.781 228.707 142.216 228.705 98.5172C228.703 53.7837 211.039 29.219 180.907 29.219C151.034 29.219 133.372 53.7837 133.374 98.5172Z" fill="#8355F8"/>
<path d="M278.599 98.5172C278.597 39.8206 310.285 0 358.86 0C407.435 0 439.387 39.8206 439.39 98.5172C439.392 156.955 409.262 196 358.868 196C308.475 196 278.601 156.955 278.599 98.5172ZM311.329 98.5172C311.33 142.216 328.995 166.781 358.867 166.781C388.999 166.781 406.662 142.216 406.66 98.5172C406.658 53.7837 388.994 29.219 358.862 29.219C328.989 29.219 311.327 53.7837 311.329 98.5172Z" fill="#8355F8"/>
<path d="M456.554 98.5172C456.551 39.8206 488.24 0 536.815 0C585.39 0 617.342 39.8206 617.344 98.5172C617.347 156.955 587.216 196 536.823 196C486.43 196 456.556 156.955 456.554 98.5172ZM489.283 98.5172C489.285 142.216 506.95 166.781 536.822 166.781C566.954 166.781 584.617 142.216 584.615 98.5172C584.613 53.7837 566.948 29.219 536.816 29.219C506.944 29.219 489.282 53.7837 489.283 98.5172Z" fill="#8355F8"/>
<path d="M644.12 92.3113H695.812L695.809 40.8549H722.305L722.307 92.3113H773.999L774 118.686H722.308L722.31 170.401H695.815L695.813 118.686H644.121L644.12 92.3113Z" fill="#8355F8"/>
</g>
</svg>
