<svg preserveAspectRatio="none" width="100%" height="100%" overflow="visible" style="display: block;" viewBox="0 0 133.888 20.433" fill="none" xmlns="http://www.w3.org/2000/svg">
<g id="Lumind.space">
<path d="M2.688 0.273V13.146H9.114V15.624H0V0.273H2.688Z" fill="var(--fill-0, #202020)"/>
<path d="M17.9568 5.25H20.5188V15.624H18.1458L17.9568 14.238C17.3268 15.225 15.9828 15.897 14.5968 15.897C12.2028 15.897 10.7958 14.28 10.7958 11.739V5.25H13.3578V10.836C13.3578 12.81 14.1348 13.608 15.5628 13.608C17.1798 13.608 17.9568 12.663 17.9568 10.689V5.25Z" fill="var(--fill-0, #202020)"/>
<path d="M25.727 15.624H23.165V5.25H25.517L25.727 6.468C26.252 5.607 27.302 4.935 28.793 4.935C30.368 4.935 31.46 5.712 32.006 6.909C32.531 5.712 33.749 4.935 35.324 4.935C37.844 4.935 39.23 6.447 39.23 8.841V15.624H36.689V9.513C36.689 8.022 35.891 7.245 34.673 7.245C33.434 7.245 32.489 8.043 32.489 9.744V15.624H29.927V9.492C29.927 8.043 29.15 7.266 27.932 7.266C26.714 7.266 25.727 8.064 25.727 9.744V15.624Z" fill="var(--fill-0, #202020)"/>
<path d="M43.026 3.171C42.144 3.171 41.451 2.478 41.451 1.617C41.451 0.756 42.144 0.0840002 43.026 0.0840002C43.866 0.0840002 44.559 0.756 44.559 1.617C44.559 2.478 43.866 3.171 43.026 3.171ZM41.745 15.624V5.25H44.307V15.624H41.745Z" fill="var(--fill-0, #202020)"/>
<path d="M49.516 15.624H46.954V5.25H49.327L49.537 6.594C50.188 5.544 51.448 4.935 52.855 4.935C55.459 4.935 56.803 6.552 56.803 9.24V15.624H54.241V9.849C54.241 8.106 53.38 7.266 52.057 7.266C50.482 7.266 49.516 8.358 49.516 10.038V15.624Z" fill="var(--fill-0, #202020)"/>
<path d="M63.5832 15.897C60.5802 15.897 58.7112 13.692 58.7112 10.479C58.7112 7.245 60.6012 4.935 63.7302 4.935C65.1792 4.935 66.4602 5.544 67.1112 6.573V0H69.6522V15.624H67.3002L67.1322 14.007C66.5022 15.204 65.1582 15.897 63.5832 15.897ZM64.1502 13.545C65.9352 13.545 67.0902 12.264 67.0902 10.395C67.0902 8.526 65.9352 7.224 64.1502 7.224C62.3652 7.224 61.2732 8.547 61.2732 10.395C61.2732 12.243 62.3652 13.545 64.1502 13.545Z" fill="var(--fill-0, #202020)"/>
<path d="M74.0442 15.876C73.1202 15.876 72.3432 15.12 72.3432 14.217C72.3432 13.293 73.1202 12.537 74.0442 12.537C74.9682 12.537 75.7452 13.293 75.7452 14.217C75.7452 15.12 74.9682 15.876 74.0442 15.876Z" fill="var(--fill-0, #202020)"/>
<path d="M77.6355 12.474H80.0715C80.0925 13.377 80.7645 13.944 81.9405 13.944C83.1375 13.944 83.7885 13.461 83.7885 12.705C83.7885 12.18 83.5155 11.802 82.5915 11.592L80.7225 11.151C78.8535 10.731 77.9505 9.849 77.9505 8.19C77.9505 6.153 79.6725 4.935 82.0665 4.935C84.3975 4.935 85.9725 6.279 85.9935 8.295H83.5575C83.5365 7.413 82.9485 6.846 81.9615 6.846C80.9535 6.846 80.3655 7.308 80.3655 8.085C80.3655 8.673 80.8275 9.051 81.7095 9.261L83.5785 9.702C85.3215 10.101 86.2035 10.899 86.2035 12.495C86.2035 14.595 84.4185 15.897 81.8565 15.897C79.2735 15.897 77.6355 14.511 77.6355 12.474Z" fill="var(--fill-0, #202020)"/>
<path d="M88.1542 20.433V5.25H90.5272L90.6952 6.825C91.3252 5.628 92.6902 4.935 94.2652 4.935C97.1842 4.935 99.1162 7.056 99.1162 10.311C99.1162 13.545 97.3522 15.897 94.2652 15.897C92.7112 15.897 91.3672 15.288 90.7162 14.238V20.433H88.1542ZM90.7372 10.437C90.7372 12.306 91.8922 13.587 93.6562 13.587C95.4622 13.587 96.5332 12.285 96.5332 10.437C96.5332 8.589 95.4622 7.266 93.6562 7.266C91.8922 7.266 90.7372 8.568 90.7372 10.437Z" fill="var(--fill-0, #202020)"/>
<path d="M104.243 15.897C102.038 15.897 100.694 14.616 100.694 12.663C100.694 10.752 102.08 9.555 104.537 9.366L107.645 9.135V8.904C107.645 7.497 106.805 6.93 105.503 6.93C103.991 6.93 103.151 7.56 103.151 8.652H100.967C100.967 6.405 102.815 4.935 105.629 4.935C108.422 4.935 110.144 6.447 110.144 9.324V15.624H107.897L107.708 14.091C107.267 15.162 105.86 15.897 104.243 15.897ZM105.083 13.965C106.658 13.965 107.666 13.02 107.666 11.424V10.878L105.503 11.046C103.907 11.193 103.298 11.718 103.298 12.558C103.298 13.503 103.928 13.965 105.083 13.965Z" fill="var(--fill-0, #202020)"/>
<path d="M112.052 10.416C112.052 7.203 114.173 4.935 117.239 4.935C120.074 4.935 122.006 6.51 122.279 9.009H119.717C119.423 7.833 118.562 7.224 117.344 7.224C115.706 7.224 114.614 8.463 114.614 10.416C114.614 12.369 115.622 13.587 117.26 13.587C118.541 13.587 119.444 12.957 119.717 11.823H122.3C121.985 14.238 119.969 15.897 117.26 15.897C114.11 15.897 112.052 13.713 112.052 10.416Z" fill="var(--fill-0, #202020)"/>
<path d="M128.848 15.897C125.761 15.897 123.598 13.65 123.598 10.437C123.598 7.182 125.719 4.935 128.764 4.935C131.872 4.935 133.846 7.014 133.846 10.248V11.025L126.034 11.046C126.223 12.873 127.189 13.797 128.89 13.797C130.297 13.797 131.221 13.251 131.515 12.264H133.888C133.447 14.532 131.557 15.897 128.848 15.897ZM128.785 7.035C127.273 7.035 126.349 7.854 126.097 9.408H131.305C131.305 7.98 130.318 7.035 128.785 7.035Z" fill="var(--fill-0, #202020)"/>
</g>
</svg>
