<svg preserveAspectRatio="none" width="100%" height="100%" overflow="visible" style="display: block;" viewBox="0 0 190 90" fill="none" xmlns="http://www.w3.org/2000/svg">
<g id="0%">
<path d="M6.39748e-08 45.2375C-0.00112358 18.285 14.7993 0 37.4865 0C60.1736 0 75.0969 18.285 75.0981 45.2375C75.0992 72.0712 61.0266 90 37.4902 90C13.9538 90 0.00111875 72.0712 6.39748e-08 45.2375ZM15.2865 45.2375C15.2874 65.3034 23.5377 76.5831 37.4897 76.5831C51.563 76.5831 59.8124 65.3034 59.8115 45.2375C59.8107 24.6966 51.5603 13.4169 37.487 13.4169C23.5351 13.4169 15.2857 24.6966 15.2865 45.2375Z" fill="url(#paint0_linear_2131_442)"/>
<path d="M128.367 22.7968C128.367 36.2137 118.662 45.5937 105.195 45.5937C91.7286 45.5937 82.0225 36.2137 82.0219 22.7968C82.0214 9.49869 91.7267 0 105.193 0C118.66 0 128.366 9.49869 128.367 22.7968ZM177.016 1.78101L109.686 88.4565H94.8848L162.215 1.78101H177.016ZM116.599 22.7968C116.598 15.9103 111.988 11.161 105.194 11.161C98.3999 11.161 93.9112 15.9103 93.9114 22.7968C93.9117 29.6834 98.5222 34.4327 105.195 34.4327C111.989 34.4327 116.599 29.6834 116.599 22.7968ZM190 67.2032C190.001 80.5013 180.417 90 166.95 90C153.362 90 143.777 80.5013 143.776 67.2032C143.776 53.905 153.36 44.4063 166.948 44.4063C180.415 44.4063 189.999 53.905 190 67.2032ZM178.232 67.2032C178.232 60.3166 173.621 55.5673 166.948 55.5673C160.154 55.5673 155.544 60.3166 155.545 67.2032C155.545 74.0897 160.155 78.8391 166.949 78.8391C173.622 78.8391 178.232 74.0897 178.232 67.2032Z" fill="url(#paint1_linear_2131_442)"/>
</g>
<defs>
<linearGradient id="paint0_linear_2131_442" x1="95" y1="-111.414" x2="95" y2="90" gradientUnits="userSpaceOnUse">
<stop stop-color="#F6F6F6"/>
<stop offset="1" stop-color="#8355F8"/>
</linearGradient>
<linearGradient id="paint1_linear_2131_442" x1="95" y1="-111.414" x2="95" y2="90" gradientUnits="userSpaceOnUse">
<stop stop-color="#F6F6F6"/>
<stop offset="1" stop-color="#8355F8"/>
</linearGradient>
</defs>
</svg>
