<svg preserveAspectRatio="none" width="100%" height="100%" overflow="visible" style="display: block;" viewBox="0 0 391 104" fill="none" xmlns="http://www.w3.org/2000/svg">
<g id="header" filter="url(#filter0_d_2131_446)">
<rect x="18" y="18" width="355" height="68" rx="34" fill="var(--fill-0, white)" shape-rendering="crispEdges"/>
<g id="Lumind.space">
<path d="M40.688 42.273V55.146H47.114V57.624H38V42.273H40.688Z" fill="var(--fill-0, #202020)"/>
<path d="M55.9568 47.25H58.5188V57.624H56.1458L55.9568 56.238C55.3268 57.225 53.9828 57.897 52.5968 57.897C50.2028 57.897 48.7958 56.28 48.7958 53.739V47.25H51.3578V52.836C51.3578 54.81 52.1348 55.608 53.5628 55.608C55.1798 55.608 55.9568 54.663 55.9568 52.689V47.25Z" fill="var(--fill-0, #202020)"/>
<path d="M63.727 57.624H61.165V47.25H63.517L63.727 48.468C64.252 47.607 65.302 46.935 66.793 46.935C68.368 46.935 69.46 47.712 70.006 48.909C70.531 47.712 71.749 46.935 73.324 46.935C75.844 46.935 77.23 48.447 77.23 50.841V57.624H74.689V51.513C74.689 50.022 73.891 49.245 72.673 49.245C71.434 49.245 70.489 50.043 70.489 51.744V57.624H67.927V51.492C67.927 50.043 67.15 49.266 65.932 49.266C64.714 49.266 63.727 50.064 63.727 51.744V57.624Z" fill="var(--fill-0, #202020)"/>
<path d="M81.026 45.171C80.144 45.171 79.451 44.478 79.451 43.617C79.451 42.756 80.144 42.084 81.026 42.084C81.866 42.084 82.559 42.756 82.559 43.617C82.559 44.478 81.866 45.171 81.026 45.171ZM79.745 57.624V47.25H82.307V57.624H79.745Z" fill="var(--fill-0, #202020)"/>
<path d="M87.516 57.624H84.954V47.25H87.327L87.537 48.594C88.188 47.544 89.448 46.935 90.855 46.935C93.459 46.935 94.803 48.552 94.803 51.24V57.624H92.241V51.849C92.241 50.106 91.38 49.266 90.057 49.266C88.482 49.266 87.516 50.358 87.516 52.038V57.624Z" fill="var(--fill-0, #202020)"/>
<path d="M101.583 57.897C98.5802 57.897 96.7112 55.692 96.7112 52.479C96.7112 49.245 98.6012 46.935 101.73 46.935C103.179 46.935 104.46 47.544 105.111 48.573V42H107.652V57.624H105.3L105.132 56.007C104.502 57.204 103.158 57.897 101.583 57.897ZM102.15 55.545C103.935 55.545 105.09 54.264 105.09 52.395C105.09 50.526 103.935 49.224 102.15 49.224C100.365 49.224 99.2732 50.547 99.2732 52.395C99.2732 54.243 100.365 55.545 102.15 55.545Z" fill="var(--fill-0, #202020)"/>
<path d="M112.044 57.876C111.12 57.876 110.343 57.12 110.343 56.217C110.343 55.293 111.12 54.537 112.044 54.537C112.968 54.537 113.745 55.293 113.745 56.217C113.745 57.12 112.968 57.876 112.044 57.876Z" fill="var(--fill-0, #202020)"/>
<path d="M115.636 54.474H118.072C118.093 55.377 118.765 55.944 119.941 55.944C121.138 55.944 121.789 55.461 121.789 54.705C121.789 54.18 121.516 53.802 120.592 53.592L118.723 53.151C116.854 52.731 115.951 51.849 115.951 50.19C115.951 48.153 117.673 46.935 120.067 46.935C122.398 46.935 123.973 48.279 123.994 50.295H121.558C121.537 49.413 120.949 48.846 119.962 48.846C118.954 48.846 118.366 49.308 118.366 50.085C118.366 50.673 118.828 51.051 119.71 51.261L121.579 51.702C123.322 52.101 124.204 52.899 124.204 54.495C124.204 56.595 122.419 57.897 119.857 57.897C117.274 57.897 115.636 56.511 115.636 54.474Z" fill="var(--fill-0, #202020)"/>
<path d="M126.154 62.433V47.25H128.527L128.695 48.825C129.325 47.628 130.69 46.935 132.265 46.935C135.184 46.935 137.116 49.056 137.116 52.311C137.116 55.545 135.352 57.897 132.265 57.897C130.711 57.897 129.367 57.288 128.716 56.238V62.433H126.154ZM128.737 52.437C128.737 54.306 129.892 55.587 131.656 55.587C133.462 55.587 134.533 54.285 134.533 52.437C134.533 50.589 133.462 49.266 131.656 49.266C129.892 49.266 128.737 50.568 128.737 52.437Z" fill="var(--fill-0, #202020)"/>
<path d="M142.243 57.897C140.038 57.897 138.694 56.616 138.694 54.663C138.694 52.752 140.08 51.555 142.537 51.366L145.645 51.135V50.904C145.645 49.497 144.805 48.93 143.503 48.93C141.991 48.93 141.151 49.56 141.151 50.652H138.967C138.967 48.405 140.815 46.935 143.629 46.935C146.422 46.935 148.144 48.447 148.144 51.324V57.624H145.897L145.708 56.091C145.267 57.162 143.86 57.897 142.243 57.897ZM143.083 55.965C144.658 55.965 145.666 55.02 145.666 53.424V52.878L143.503 53.046C141.907 53.193 141.298 53.718 141.298 54.558C141.298 55.503 141.928 55.965 143.083 55.965Z" fill="var(--fill-0, #202020)"/>
<path d="M150.052 52.416C150.052 49.203 152.173 46.935 155.239 46.935C158.074 46.935 160.006 48.51 160.279 51.009H157.717C157.423 49.833 156.562 49.224 155.344 49.224C153.706 49.224 152.614 50.463 152.614 52.416C152.614 54.369 153.622 55.587 155.26 55.587C156.541 55.587 157.444 54.957 157.717 53.823H160.3C159.985 56.238 157.969 57.897 155.26 57.897C152.11 57.897 150.052 55.713 150.052 52.416Z" fill="var(--fill-0, #202020)"/>
<path d="M166.848 57.897C163.761 57.897 161.598 55.65 161.598 52.437C161.598 49.182 163.719 46.935 166.764 46.935C169.872 46.935 171.846 49.014 171.846 52.248V53.025L164.034 53.046C164.223 54.873 165.189 55.797 166.89 55.797C168.297 55.797 169.221 55.251 169.515 54.264H171.888C171.447 56.532 169.557 57.897 166.848 57.897ZM166.785 49.035C165.273 49.035 164.349 49.854 164.097 51.408H169.305C169.305 49.98 168.318 49.035 166.785 49.035Z" fill="var(--fill-0, #202020)"/>
</g>
<g id="lucide:menu">
<path id="Vector" d="M333 49H349" stroke="var(--stroke-0, #1C1C1C)" stroke-width="2" stroke-linecap="round" stroke-linejoin="round"/>
<path id="Vector_2" d="M333 59H349" stroke="var(--stroke-0, #1C1C1C)" stroke-width="2" stroke-linecap="round" stroke-linejoin="round"/>
</g>
</g>
<defs>
<filter id="filter0_d_2131_446" x="0" y="0" width="391" height="104" filterUnits="userSpaceOnUse" color-interpolation-filters="sRGB">
<feFlood flood-opacity="0" result="BackgroundImageFix"/>
<feColorMatrix in="SourceAlpha" type="matrix" values="0 0 0 0 0 0 0 0 0 0 0 0 0 0 0 0 0 0 127 0" result="hardAlpha"/>
<feMorphology radius="2" operator="dilate" in="SourceAlpha" result="effect1_dropShadow_2131_446"/>
<feOffset/>
<feGaussianBlur stdDeviation="8"/>
<feComposite in2="hardAlpha" operator="out"/>
<feColorMatrix type="matrix" values="0 0 0 0 0.12549 0 0 0 0 0.12549 0 0 0 0 0.12549 0 0 0 0.02 0"/>
<feBlend mode="normal" in2="BackgroundImageFix" result="effect1_dropShadow_2131_446"/>
<feBlend mode="normal" in="SourceGraphic" in2="effect1_dropShadow_2131_446" result="shape"/>
</filter>
</defs>
</svg>
