<svg preserveAspectRatio="none" width="100%" height="100%" overflow="visible" style="display: block;" viewBox="0 0 340 86" fill="none" xmlns="http://www.w3.org/2000/svg">
<g id="1000+">
<path d="M18.2575 14.6359H0.000535388L0 1.5884H32.2919L32.2953 84.5251H18.2603L18.2575 14.6359Z" fill="#8355F8"/>
<path d="M44.2106 43.2269C44.2095 17.4723 58.1297 0 79.4675 0C100.805 0 114.841 17.4723 114.842 43.2269C114.843 68.8681 101.608 86 79.471 86C57.3345 86 44.2116 68.8681 44.2106 43.2269ZM58.5879 43.2269C58.5887 62.4011 66.3483 73.1794 79.4705 73.1794C92.7068 73.1794 100.466 62.4011 100.465 43.2269C100.464 23.5989 92.7043 12.8206 79.468 12.8206C66.3459 12.8206 58.5871 23.5989 58.5879 43.2269Z" fill="#8355F8"/>
<path d="M122.382 43.2269C122.381 17.4723 136.301 0 157.639 0C178.977 0 193.012 17.4723 193.014 43.2269C193.015 68.8681 179.779 86 157.642 86C135.506 86 122.383 68.8681 122.382 43.2269ZM136.759 43.2269C136.76 62.4011 144.52 73.1794 157.642 73.1794C170.878 73.1794 178.637 62.4011 178.636 43.2269C178.635 23.5989 170.876 12.8206 157.639 12.8206C144.517 12.8206 136.759 23.5989 136.759 43.2269Z" fill="#8355F8"/>
<path d="M200.553 43.2269C200.552 17.4723 214.473 0 235.81 0C257.148 0 271.184 17.4723 271.185 43.2269C271.186 68.8681 257.95 86 235.814 86C213.677 86 200.554 68.8681 200.553 43.2269ZM214.931 43.2269C214.932 62.4011 222.691 73.1794 235.813 73.1794C249.05 73.1794 256.808 62.4011 256.808 43.2269C256.807 23.5989 249.047 12.8206 235.811 12.8206C222.689 12.8206 214.93 23.5989 214.931 43.2269Z" fill="#8355F8"/>
<path d="M282.947 40.504H305.654L305.653 17.9261H317.292L317.292 40.504H340L340 52.0765H317.293L317.294 74.7678H305.655L305.654 52.0765H282.947L282.947 40.504Z" fill="#8355F8"/>
</g>
</svg>
