<svg preserveAspectRatio="none" width="100%" height="100%" overflow="visible" style="display: block;" viewBox="0 0 206.837 190" fill="none" xmlns="http://www.w3.org/2000/svg">
<path id="Star 1" d="M99.8232 7.15527C101.359 4.28189 105.478 4.2819 107.015 7.15527L132.784 55.3545C134.878 59.2702 138.696 61.9693 143.086 62.6357L198.362 71.0273C201.71 71.5356 203.015 75.6663 200.567 78.0059L161.549 115.3C158.186 118.514 156.627 123.182 157.386 127.771L166.056 180.239C166.595 183.503 163.228 186.017 160.252 184.572L109.568 159.961C105.686 158.076 101.152 158.076 97.2695 159.961L46.5859 184.572C43.61 186.017 40.2419 183.503 40.7813 180.239L49.4512 127.771C50.2095 123.182 48.6519 118.514 45.2891 115.3L6.26953 78.0059C3.82219 75.6663 5.12735 71.5359 8.47461 71.0273L63.752 62.6357C68.1419 61.9693 71.9602 59.2702 74.0537 55.3545L99.8232 7.15527Z" stroke="url(#paint0_linear_2131_427)" stroke-width="10"/>
<defs>
<linearGradient id="paint0_linear_2131_427" x1="103.419" y1="-235.207" x2="103.419" y2="190" gradientUnits="userSpaceOnUse">
<stop stop-color="#F6F6F6"/>
<stop offset="1" stop-color="#8355F8"/>
</linearGradient>
</defs>
</svg>
